<?xml version="1.0" encoding="iso-8859-1"?>
<!-- Generator: Adobe Illustrator 19.1.0, SVG Export Plug-In . SVG Version: 6.00 Build 0)  -->
<svg version="1.1" id="Layer_1" xmlns="http://www.w3.org/2000/svg" xmlns:xlink="http://www.w3.org/1999/xlink" x="0px" y="0px"
	 viewBox="0 0 176 97" style="enable-background:new 0 0 176 97;" xml:space="preserve">
<g>
	<circle style="fill:#26B99A;" cx="133.242" cy="16.913" r="1.423"/>
	<path style="fill:#2C3E50;" d="M107.472,34.023c-6.784,7.212,6.338,18.429,9.336,21.76c6.689,7.431,14.667,13.672,23.041,19.091
		c8.935,5.782,18.629,10.582,28.707,14.027c1.133,0.387,2.272,0.774,3.427,1.093c0,0-31.209-30.278-29.123-31.964
		c1.923-1.554,15.222,11.708,15.222,11.708l5.109-0.389c0,0-12.381-15.821-17.378-20.624
		C139.74,42.889,115.882,25.082,107.472,34.023z"/>
	<path style="fill:#2C3E50;" d="M122.493,12.723c0.712,1.435,1.122,3.045,1.122,4.756c0,0.979-0.14,1.924-0.387,2.824
		c0.734-0.233,1.273-0.68,1.873-1.219c1.494-1.343,3.366-3.256,9.564-3.849C136.707,15.039,127.051,10.971,122.493,12.723z"/>
	<path style="fill:#2C3E50;" d="M101.128,42.169c0,0-4.649-21.453,10.727-21.454c21.454-0.001,35.757,25.387,35.757,25.387
		s-18.593-17.521-34.326-17.521C101.457,28.581,101.128,42.169,101.128,42.169z"/>
	<path style="fill:#2C3E50;" d="M114.984,6.948c-12.872,0-15.179,24.719-14.434,26.18c4.303-2.132,20.832-8.877,17.92-10.805
		c-1.715-1.135,5.279,0.099,5.967,0.395c1.262-1.759,1.274-2.714,1.274-5.043C125.711,11.751,120.908,6.948,114.984,6.948z
		 M120.883,16.066c-0.661,0-1.198-0.536-1.198-1.198c0-0.661,0.536-1.198,1.198-1.198s1.198,0.536,1.198,1.198
		C122.081,15.53,121.545,16.066,120.883,16.066z"/>
	<path style="fill:#2C3E50;" d="M109.946,58.446l-5.556,12.429h2.36l4.691-10.498C110.947,59.761,110.445,59.114,109.946,58.446z"/>
	<polygon style="fill:#2C3E50;" points="134.944,18.022 125.101,19.084 125.101,20.715 	"/>
</g>
<g>
	<path style="fill:#26B99A;" d="M28.486,63.145v7.939h-2.758v-7.172c0-1.942-1.151-3.118-3.022-3.118
		c-2.183,0.072-3.502,1.751-3.502,3.982v6.308h-2.758v-7.172c0-1.942-1.128-3.118-2.998-3.118c-2.206,0.072-3.55,1.751-3.55,3.982
		v6.308H7.163v-12.76h2.734v2.47c0.888-1.799,2.519-2.567,4.629-2.567c2.279,0,3.838,1.128,4.437,3.07
		c0.815-2.135,2.519-3.07,4.845-3.07C26.735,58.228,28.486,60.099,28.486,63.145z"/>
	<path style="fill:#26B99A;" d="M39.829,69.525c-0.911,1.127-2.374,1.679-4.221,1.679c-2.758,0-4.486-1.703-4.486-3.958
		c0-2.326,1.751-3.814,4.821-3.838h3.862v-0.384c0-1.607-1.031-2.567-3.046-2.567c-1.223,0-2.494,0.432-3.765,1.295l-1.128-1.919
		c1.775-1.055,3.07-1.607,5.493-1.607c3.286,0,5.133,1.679,5.157,4.485l0.024,8.371h-2.71V69.525z M39.805,66.599v-1.175h-3.454
		c-1.799,0-2.638,0.48-2.638,1.703c0,1.152,0.935,1.895,2.47,1.895C38.15,69.022,39.661,67.99,39.805,66.599z"/>
	<path style="fill:#26B99A;" d="M57.745,69.837c0,3.67-2.614,5.972-6.62,5.972c-1.991,0-3.741-0.624-5.3-1.679l1.175-1.991
		c1.199,0.888,2.447,1.391,4.005,1.391c2.423,0,4.005-1.415,4.005-3.622v-1.607c-0.863,1.391-2.303,2.159-4.221,2.159
		c-3.454,0-5.757-2.494-5.757-6.164c0-3.598,2.279-6.045,5.661-6.068c1.967-0.024,3.43,0.768,4.317,2.159v-2.063h2.734V69.837z
		 M55.01,64.368c0-2.303-1.511-3.909-3.669-3.909c-2.183,0-3.694,1.631-3.718,3.909c0.024,2.303,1.511,3.934,3.718,3.934
		C53.5,68.302,55.01,66.671,55.01,64.368z"/>
	<path style="fill:#26B99A;" d="M75.013,64.752c0,3.814-2.399,6.428-6.045,6.428c-2.039,0-3.574-0.816-4.509-2.303v6.859h-2.758
		V58.324h2.758v2.206c0.935-1.487,2.47-2.303,4.461-2.303C72.542,58.228,75.013,60.867,75.013,64.752z M72.23,64.656
		c0-2.374-1.607-4.125-3.886-4.125s-3.885,1.727-3.885,4.125c0,2.47,1.607,4.173,3.885,4.173S72.23,67.103,72.23,64.656z"/>
	<path style="fill:#26B99A;" d="M77.889,71.084v-12.76h2.734v12.76H77.889z"/>
	<path style="fill:#26B99A;" d="M95.925,65.76h-9.642c0.431,1.967,1.942,3.19,3.957,3.19c1.391,0,2.663-0.527,3.598-1.487
		l1.463,1.559c-1.247,1.367-3.07,2.159-5.277,2.159c-3.934,0-6.524-2.614-6.524-6.452c0-3.862,2.663-6.476,6.452-6.5
		C94.438,58.228,96.261,61.154,95.925,65.76z M93.527,63.745c-0.096-2.062-1.463-3.31-3.55-3.31c-2.015,0-3.43,1.271-3.742,3.31
		H93.527z"/>
</g>
<g>
	<path style="fill:#ECF0F1;" d="M8.627,86.7v1.897H7.163v-9.446h1.464v5.703l2.992-3.03h1.68l-2.508,2.622l2.699,4.15h-1.731
		L9.773,85.49L8.627,86.7z"/>
	<path style="fill:#ECF0F1;" d="M20.312,85.77h-5.118c0.229,1.044,1.031,1.693,2.101,1.693c0.738,0,1.413-0.28,1.909-0.789
		l0.776,0.828c-0.662,0.726-1.629,1.145-2.8,1.145c-2.088,0-3.463-1.387-3.463-3.424c0-2.05,1.413-3.437,3.424-3.45
		C19.522,81.773,20.49,83.326,20.312,85.77z M19.038,84.701c-0.051-1.095-0.776-1.757-1.884-1.757c-1.07,0-1.82,0.675-1.986,1.757
		H19.038z"/>
	<path style="fill:#ECF0F1;" d="M24.243,89.526c-0.42,1.069-1.184,1.604-2.202,1.604c-0.611,0-1.095-0.178-1.566-0.573l0.624-1.133
		c0.318,0.229,0.573,0.331,0.879,0.331c0.445,0,0.802-0.242,1.031-0.751l0.229-0.509l-2.8-6.67h1.515l2.024,5.13l1.884-5.13h1.464
		L24.243,89.526z"/>
	<path style="fill:#ECF0F1;" d="M34.705,88.596l-1.719-5.016l-1.719,5.016h-1.502l-2.495-6.772h1.502l1.757,5.321l1.706-5.321h1.515
		l1.719,5.321l1.731-5.321h1.49l-2.47,6.772H34.705z"/>
	<path style="fill:#ECF0F1;" d="M45.879,85.21c0,2.037-1.439,3.437-3.526,3.437c-2.1,0-3.539-1.4-3.539-3.437
		c0-2.05,1.439-3.437,3.539-3.437C44.44,81.773,45.879,83.16,45.879,85.21z M40.277,85.223c0,1.311,0.853,2.202,2.075,2.202
		c1.209,0,2.062-0.891,2.062-2.202c0-1.298-0.853-2.189-2.062-2.189C41.13,83.033,40.277,83.924,40.277,85.223z"/>
	<path style="fill:#ECF0F1;" d="M48.868,83.173c0.458-0.917,1.273-1.4,2.342-1.4v1.4c-1.362-0.076-2.228,0.726-2.342,1.884v3.539
		h-1.464v-6.772h1.464V83.173z"/>
	<path style="fill:#ECF0F1;" d="M58.872,88.596h-1.464v-1.159c-0.484,0.79-1.298,1.222-2.38,1.222c-1.948,0-3.246-1.413-3.246-3.475
		c0-2.037,1.311-3.424,3.221-3.424c1.095,0,1.909,0.446,2.406,1.235v-3.844h1.464V88.596z M57.408,85.236
		c0-1.311-0.853-2.228-2.075-2.228s-2.075,0.929-2.088,2.228c0.013,1.286,0.853,2.202,2.088,2.202
		C56.555,87.438,57.408,86.521,57.408,85.236z"/>
	<path style="fill:#ECF0F1;" d="M70.339,85.77h-5.118c0.229,1.044,1.031,1.693,2.1,1.693c0.738,0,1.413-0.28,1.91-0.789l0.776,0.828
		c-0.662,0.726-1.629,1.145-2.8,1.145c-2.088,0-3.463-1.387-3.463-3.424c0-2.05,1.413-3.437,3.424-3.45
		C69.549,81.773,70.517,83.326,70.339,85.77z M69.065,84.701c-0.051-1.095-0.776-1.757-1.884-1.757c-1.07,0-1.82,0.675-1.986,1.757
		H69.065z"/>
	<path style="fill:#ECF0F1;" d="M75.479,81.824h1.604l-2.177,3.297l2.33,3.475h-1.681l-1.617-2.483l-1.731,2.483h-1.629l2.393-3.475
		l-2.228-3.297h1.68l1.515,2.317L75.479,81.824z"/>
	<path style="fill:#ECF0F1;" d="M82.364,88.163c-0.535,0.318-1.095,0.496-1.668,0.496c-1.018,0-1.897-0.586-1.897-1.973v-3.514
		h-0.955v-1.095H78.8V80.22h1.451v1.859h1.999v1.095h-1.999v3.246c0,0.7,0.268,0.917,0.726,0.917c0.306,0,0.624-0.102,1.018-0.293
		L82.364,88.163z"/>
	<path style="fill:#ECF0F1;" d="M85.176,83.173c0.458-0.917,1.273-1.4,2.342-1.4v1.4c-1.362-0.076-2.228,0.726-2.342,1.884v3.539
		h-1.464v-6.772h1.464V83.173z"/>
	<path style="fill:#ECF0F1;" d="M92.52,87.769c-0.484,0.598-1.26,0.891-2.241,0.891c-1.464,0-2.381-0.904-2.381-2.1
		c0-1.235,0.929-2.024,2.559-2.037h2.05v-0.204c0-0.853-0.548-1.362-1.617-1.362c-0.649,0-1.324,0.229-1.999,0.688l-0.598-1.018
		c0.942-0.56,1.629-0.853,2.915-0.853c1.744,0,2.725,0.891,2.737,2.381l0.012,4.443H92.52V87.769z M92.507,86.216v-0.624h-1.833
		c-0.955,0-1.401,0.255-1.401,0.904c0,0.611,0.496,1.006,1.311,1.006C91.629,87.502,92.431,86.954,92.507,86.216z"/>
	<path style="fill:#ECF0F1;" d="M101.492,82.88l-0.802,0.942c-0.471-0.484-1.12-0.776-1.935-0.764c-1.171,0-2.012,0.879-2.012,2.164
		c0,1.286,0.84,2.164,2.012,2.164c0.853,0,1.54-0.28,1.999-0.815l0.815,0.815c-0.611,0.802-1.591,1.26-2.877,1.26
		c-2.011,0-3.412-1.387-3.412-3.424c0-2.05,1.4-3.45,3.412-3.45C99.914,81.773,100.869,82.168,101.492,82.88z"/>
	<path style="fill:#ECF0F1;" d="M106.926,88.163c-0.535,0.318-1.095,0.496-1.668,0.496c-1.018,0-1.897-0.586-1.897-1.973v-3.514
		h-0.955v-1.095h0.955V80.22h1.451v1.859h1.999v1.095h-1.999v3.246c0,0.7,0.267,0.917,0.725,0.917c0.306,0,0.624-0.102,1.018-0.293
		L106.926,88.163z"/>
	<path style="fill:#ECF0F1;" d="M108.274,88.596v-6.772h1.451v6.772H108.274z"/>
	<path style="fill:#ECF0F1;" d="M118.317,85.21c0,2.037-1.439,3.437-3.526,3.437c-2.1,0-3.539-1.4-3.539-3.437
		c0-2.05,1.439-3.437,3.539-3.437C116.878,81.773,118.317,83.16,118.317,85.21z M112.715,85.223c0,1.311,0.853,2.202,2.075,2.202
		c1.209,0,2.062-0.891,2.062-2.202c0-1.298-0.853-2.189-2.062-2.189C113.568,83.033,112.715,83.924,112.715,85.223z"/>
	<path style="fill:#ECF0F1;" d="M126.322,84.383v4.214h-1.464V84.79c0-1.018-0.611-1.642-1.629-1.642
		c-1.12,0.013-1.82,0.79-1.922,1.846v3.603h-1.464v-6.772h1.464v1.298c0.484-0.942,1.349-1.349,2.495-1.349
		C125.38,81.773,126.322,82.766,126.322,84.383z"/>
</g>
<path style="fill:#2C3E50;" d="M109.803,80.226c0,0.48-0.348,0.828-0.804,0.828c-0.456,0-0.803-0.348-0.803-0.828
	c0-0.492,0.348-0.839,0.803-0.839C109.455,79.386,109.803,79.734,109.803,80.226z"/>
</svg>
