<?xml version="1.0" encoding="iso-8859-1"?>
<!-- Generator: Adobe Illustrator 19.1.0, SVG Export Plug-In . SVG Version: 6.00 Build 0)  -->
<svg version="1.1" id="Layer_1" xmlns="http://www.w3.org/2000/svg" xmlns:xlink="http://www.w3.org/1999/xlink" x="0px" y="0px"
	 viewBox="0 0 176 97" style="enable-background:new 0 0 176 97;" xml:space="preserve">
<g>
	<circle style="fill:#26B99A;" cx="133.242" cy="16.913" r="1.423"/>
	<path style="fill:#2C3E50;" d="M107.472,34.023c-6.784,7.212,6.338,18.429,9.336,21.76c6.689,7.431,14.667,13.672,23.041,19.091
		c8.935,5.782,18.629,10.582,28.707,14.027c1.133,0.387,2.272,0.774,3.427,1.093c0,0-31.209-30.278-29.123-31.964
		c1.923-1.554,15.222,11.708,15.222,11.708l5.109-0.389c0,0-12.381-15.821-17.378-20.624
		C139.74,42.889,115.882,25.082,107.472,34.023z"/>
	<path style="fill:#2C3E50;" d="M122.493,12.723c0.712,1.435,1.122,3.045,1.122,4.756c0,0.979-0.14,1.924-0.387,2.824
		c0.734-0.233,1.273-0.68,1.873-1.219c1.494-1.343,3.366-3.256,9.564-3.849C136.707,15.039,127.051,10.971,122.493,12.723z"/>
	<path style="fill:#2C3E50;" d="M101.128,42.169c0,0-4.649-21.453,10.727-21.454c21.454-0.001,35.757,25.387,35.757,25.387
		s-18.593-17.521-34.326-17.521C101.457,28.581,101.128,42.169,101.128,42.169z"/>
	<path style="fill:#2C3E50;" d="M114.984,6.948c-12.872,0-15.179,24.719-14.434,26.18c4.303-2.132,20.832-8.877,17.92-10.805
		c-1.715-1.135,5.279,0.099,5.967,0.395c1.262-1.759,1.274-2.714,1.274-5.043C125.711,11.751,120.908,6.948,114.984,6.948z
		 M120.883,16.066c-0.661,0-1.198-0.536-1.198-1.198c0-0.661,0.536-1.198,1.198-1.198s1.198,0.536,1.198,1.198
		C122.081,15.53,121.545,16.066,120.883,16.066z"/>
	<path style="fill:#2C3E50;" d="M109.946,58.446l-5.556,12.429h2.36l4.691-10.498C110.947,59.761,110.445,59.114,109.946,58.446z"/>
	<polygon style="fill:#2C3E50;" points="134.944,18.022 125.101,19.084 125.101,20.715 	"/>
</g>
<g>
	<path style="fill:#26B99A;" d="M28.486,63.145v7.939h-2.758v-7.172c0-1.942-1.151-3.118-3.022-3.118
		c-2.183,0.072-3.502,1.751-3.502,3.982v6.308h-2.758v-7.172c0-1.942-1.128-3.118-2.998-3.118c-2.206,0.072-3.55,1.751-3.55,3.982
		v6.308H7.163v-12.76h2.734v2.47c0.888-1.799,2.519-2.567,4.629-2.567c2.279,0,3.838,1.128,4.437,3.07
		c0.815-2.135,2.519-3.07,4.845-3.07C26.735,58.228,28.486,60.099,28.486,63.145z"/>
	<path style="fill:#26B99A;" d="M39.829,69.525c-0.911,1.127-2.374,1.679-4.221,1.679c-2.758,0-4.486-1.703-4.486-3.958
		c0-2.326,1.751-3.814,4.821-3.838h3.862v-0.384c0-1.607-1.031-2.567-3.046-2.567c-1.223,0-2.494,0.432-3.765,1.295l-1.128-1.919
		c1.775-1.055,3.07-1.607,5.493-1.607c3.286,0,5.133,1.679,5.157,4.485l0.024,8.371h-2.71V69.525z M39.805,66.599v-1.175h-3.454
		c-1.799,0-2.638,0.48-2.638,1.703c0,1.152,0.935,1.895,2.47,1.895C38.15,69.022,39.661,67.99,39.805,66.599z"/>
	<path style="fill:#26B99A;" d="M57.745,69.837c0,3.67-2.614,5.972-6.62,5.972c-1.991,0-3.741-0.624-5.3-1.679l1.175-1.991
		c1.199,0.888,2.447,1.391,4.005,1.391c2.423,0,4.005-1.415,4.005-3.622v-1.607c-0.863,1.391-2.303,2.159-4.221,2.159
		c-3.454,0-5.757-2.494-5.757-6.164c0-3.598,2.279-6.045,5.661-6.068c1.967-0.024,3.43,0.768,4.317,2.159v-2.063h2.734V69.837z
		 M55.01,64.368c0-2.303-1.511-3.909-3.669-3.909c-2.183,0-3.694,1.631-3.718,3.909c0.024,2.303,1.511,3.934,3.718,3.934
		C53.5,68.302,55.01,66.671,55.01,64.368z"/>
	<path style="fill:#26B99A;" d="M75.013,64.752c0,3.814-2.399,6.428-6.045,6.428c-2.039,0-3.574-0.816-4.509-2.303v6.859h-2.758
		V58.324h2.758v2.206c0.935-1.487,2.47-2.303,4.461-2.303C72.542,58.228,75.013,60.867,75.013,64.752z M72.23,64.656
		c0-2.374-1.607-4.125-3.886-4.125s-3.885,1.727-3.885,4.125c0,2.47,1.607,4.173,3.885,4.173S72.23,67.103,72.23,64.656z"/>
	<path style="fill:#26B99A;" d="M77.889,71.084v-12.76h2.734v12.76H77.889z"/>
	<path style="fill:#26B99A;" d="M95.925,65.76h-9.642c0.431,1.967,1.942,3.19,3.957,3.19c1.391,0,2.663-0.527,3.598-1.487
		l1.463,1.559c-1.247,1.367-3.07,2.159-5.277,2.159c-3.934,0-6.524-2.614-6.524-6.452c0-3.862,2.663-6.476,6.452-6.5
		C94.438,58.228,96.261,61.154,95.925,65.76z M93.527,63.745c-0.096-2.062-1.463-3.31-3.55-3.31c-2.015,0-3.43,1.271-3.742,3.31
		H93.527z"/>
</g>
<g>
	<path style="fill:#ECF0F1;" d="M11.407,88.245c-0.588,0.35-1.205,0.546-1.835,0.546c-1.121,0-2.087-0.644-2.087-2.171v-3.866H6.434
		v-1.205h1.051v-2.045h1.597v2.045h2.199v1.205H9.082v3.572c0,0.771,0.294,1.009,0.798,1.009c0.336,0,0.687-0.112,1.121-0.322
		L11.407,88.245z"/>
	<path style="fill:#ECF0F1;" d="M19.36,85.611h-5.631c0.252,1.149,1.134,1.863,2.311,1.863c0.812,0,1.555-0.308,2.101-0.869
		l0.854,0.911c-0.728,0.798-1.793,1.261-3.082,1.261c-2.297,0-3.81-1.527-3.81-3.768c0-2.255,1.555-3.782,3.768-3.796
		C18.492,81.212,19.556,82.921,19.36,85.611z M17.959,84.435c-0.056-1.205-0.854-1.933-2.073-1.933
		c-1.177,0-2.003,0.742-2.186,1.933H17.959z"/>
	<path style="fill:#ECF0F1;" d="M25.015,81.269h1.765l-2.396,3.628l2.563,3.824h-1.849l-1.779-2.731l-1.905,2.731h-1.793
		l2.633-3.824l-2.451-3.628h1.849l1.667,2.549L25.015,81.269z"/>
	<path style="fill:#ECF0F1;" d="M32.588,88.245c-0.588,0.35-1.205,0.546-1.835,0.546c-1.121,0-2.087-0.644-2.087-2.171v-3.866
		h-1.051v-1.205h1.051v-2.045h1.597v2.045h2.199v1.205h-2.199v3.572c0,0.771,0.294,1.009,0.798,1.009
		c0.336,0,0.687-0.112,1.121-0.322L32.588,88.245z"/>
	<path style="fill:#ECF0F1;" d="M43.817,82.431l-0.883,1.037c-0.518-0.532-1.232-0.854-2.129-0.84c-1.289,0-2.213,0.966-2.213,2.381
		c0,1.415,0.924,2.381,2.213,2.381c0.938,0,1.695-0.308,2.199-0.896l0.896,0.896c-0.672,0.882-1.751,1.387-3.166,1.387
		c-2.213,0-3.754-1.527-3.754-3.768c0-2.255,1.541-3.796,3.754-3.796C42.08,81.212,43.131,81.647,43.817,82.431z"/>
	<path style="fill:#ECF0F1;" d="M45.648,88.721V78.327h1.611v10.394H45.648z"/>
	<path style="fill:#ECF0F1;" d="M54.176,87.81c-0.532,0.659-1.387,0.98-2.465,0.98c-1.611,0-2.62-0.994-2.62-2.311
		c0-1.359,1.022-2.227,2.815-2.241h2.255v-0.224c0-0.938-0.603-1.499-1.779-1.499c-0.714,0-1.457,0.252-2.199,0.757l-0.659-1.121
		c1.037-0.617,1.793-0.939,3.208-0.939c1.919,0,2.998,0.981,3.012,2.62l0.014,4.889h-1.583V87.81z M54.162,86.101v-0.686h-2.017
		c-1.05,0-1.541,0.28-1.541,0.995c0,0.672,0.546,1.106,1.443,1.106C53.196,87.516,54.078,86.914,54.162,86.101z"/>
	<path style="fill:#ECF0F1;" d="M62.745,81.955l-0.588,1.19c-0.659-0.406-1.485-0.658-2.143-0.658c-0.63,0-1.093,0.21-1.093,0.743
		c0,1.373,3.964,0.63,3.95,3.333c0,1.527-1.359,2.213-2.857,2.213c-1.093,0-2.255-0.364-2.998-1.037l0.575-1.149
		c0.644,0.575,1.681,0.925,2.493,0.925c0.687,0,1.219-0.238,1.219-0.798c0-1.527-3.922-0.672-3.908-3.362
		c0-1.513,1.317-2.157,2.746-2.157C61.078,81.199,62.072,81.479,62.745,81.955z"/>
	<path style="fill:#ECF0F1;" d="M69.324,81.955l-0.588,1.19c-0.659-0.406-1.485-0.658-2.143-0.658c-0.63,0-1.093,0.21-1.093,0.743
		c0,1.373,3.964,0.63,3.95,3.333c0,1.527-1.359,2.213-2.857,2.213c-1.093,0-2.255-0.364-2.998-1.037l0.575-1.149
		c0.644,0.575,1.681,0.925,2.493,0.925c0.687,0,1.219-0.238,1.219-0.798c0-1.527-3.922-0.672-3.908-3.362
		c0-1.513,1.317-2.157,2.746-2.157C67.657,81.199,68.652,81.479,69.324,81.955z"/>
	<path style="fill:#ECF0F1;" d="M72.808,79.14c0,0.56-0.406,0.966-0.938,0.966c-0.533,0-0.938-0.406-0.938-0.966
		c0-0.574,0.406-0.98,0.938-0.98C72.402,78.159,72.808,78.565,72.808,79.14z M71.071,88.721v-7.452h1.597v7.452H71.071z"/>
	<path style="fill:#ECF0F1;" d="M75.355,80.82c0-1.779,1.316-2.563,2.563-2.563c0.504,0,0.995,0.112,1.387,0.336l-0.056,1.401
		c-0.435-0.196-0.896-0.322-1.289-0.322c-0.574,0-1.008,0.266-1.008,0.995v0.868h1.947v1.205h-1.947v5.981h-1.597v-5.981h-0.981
		v-1.205h0.981V80.82z M79.711,79.14c0-0.574,0.406-0.98,0.938-0.98c0.533,0,0.939,0.406,0.939,0.98c0,0.56-0.406,0.966-0.939,0.966
		C80.118,80.106,79.711,79.7,79.711,79.14z M81.449,81.269v7.452h-1.597v-7.452H81.449z"/>
	<path style="fill:#ECF0F1;" d="M89.96,82.431l-0.883,1.037c-0.518-0.532-1.232-0.854-2.129-0.84c-1.289,0-2.213,0.966-2.213,2.381
		c0,1.415,0.925,2.381,2.213,2.381c0.938,0,1.695-0.308,2.199-0.896l0.896,0.896c-0.672,0.882-1.751,1.387-3.166,1.387
		c-2.213,0-3.754-1.527-3.754-3.768c0-2.255,1.541-3.796,3.754-3.796C88.223,81.212,89.274,81.647,89.96,82.431z"/>
	<path style="fill:#ECF0F1;" d="M95.882,87.81c-0.532,0.659-1.387,0.98-2.465,0.98c-1.611,0-2.62-0.994-2.62-2.311
		c0-1.359,1.022-2.227,2.815-2.241h2.255v-0.224c0-0.938-0.602-1.499-1.779-1.499c-0.714,0-1.457,0.252-2.199,0.757l-0.658-1.121
		c1.036-0.617,1.793-0.939,3.208-0.939c1.919,0,2.998,0.981,3.012,2.62l0.014,4.889h-1.583V87.81z M95.868,86.101v-0.686h-2.017
		c-1.051,0-1.541,0.28-1.541,0.995c0,0.672,0.546,1.106,1.443,1.106C94.901,87.516,95.784,86.914,95.868,86.101z"/>
	<path style="fill:#ECF0F1;" d="M103.833,88.245c-0.588,0.35-1.205,0.546-1.835,0.546c-1.121,0-2.087-0.644-2.087-2.171v-3.866
		h-1.051v-1.205h1.051v-2.045h1.597v2.045h2.199v1.205h-2.199v3.572c0,0.771,0.294,1.009,0.798,1.009
		c0.336,0,0.687-0.112,1.121-0.322L103.833,88.245z"/>
	<path style="fill:#ECF0F1;" d="M107.052,79.14c0,0.56-0.406,0.966-0.938,0.966s-0.938-0.406-0.938-0.966
		c0-0.574,0.406-0.98,0.938-0.98S107.052,78.565,107.052,79.14z M105.314,88.721v-7.452h1.597v7.452H105.314z"/>
	<path style="fill:#ECF0F1;" d="M116.365,84.995c0,2.241-1.583,3.782-3.88,3.782c-2.311,0-3.894-1.541-3.894-3.782
		c0-2.255,1.583-3.782,3.894-3.782C114.782,81.212,116.365,82.739,116.365,84.995z M110.202,85.009c0,1.443,0.938,2.423,2.283,2.423
		c1.331,0,2.27-0.98,2.27-2.423c0-1.429-0.939-2.409-2.27-2.409C111.14,82.6,110.202,83.58,110.202,85.009z"/>
	<path style="fill:#ECF0F1;" d="M125.171,84.084v4.637h-1.611v-4.188c0-1.121-0.672-1.807-1.793-1.807
		c-1.232,0.014-2.003,0.868-2.115,2.031v3.964h-1.611v-7.452h1.611v1.429c0.532-1.037,1.484-1.485,2.745-1.485
		C124.135,81.212,125.171,82.305,125.171,84.084z"/>
</g>
</svg>
