<?xml version="1.0" encoding="iso-8859-1"?>
<!-- Generator: Adobe Illustrator 19.1.0, SVG Export Plug-In . SVG Version: 6.00 Build 0)  -->
<svg version="1.1" id="Layer_1" xmlns="http://www.w3.org/2000/svg" xmlns:xlink="http://www.w3.org/1999/xlink" x="0px" y="0px"
	 viewBox="0 0 110 110.98" style="enable-background:new 0 0 110 110.98;" xml:space="preserve">
<g>
	<circle style="fill:#26B99A;" cx="54.449" cy="18.305" r="1.804"/>
	<path style="fill:#35495E;" d="M21.77,40.002c-8.603,9.146,8.037,23.37,11.839,27.594c8.482,9.423,18.6,17.338,29.218,24.21
		c11.331,7.332,23.624,13.419,36.404,17.788c1.437,0.491,2.881,0.981,4.346,1.386c0,0-39.577-38.397-36.932-40.534
		c2.439-1.971,19.303,14.848,19.303,14.848l6.478-0.493c0,0-15.7-20.063-22.038-26.154C62.69,51.246,32.435,28.664,21.77,40.002z"/>
	<path style="fill:#35495E;" d="M40.818,12.992c0.903,1.819,1.423,3.862,1.423,6.031c0,1.242-0.177,2.44-0.491,3.582
		c0.931-0.295,1.614-0.862,2.375-1.546c1.895-1.703,4.269-4.129,12.128-4.882C58.844,15.929,46.599,10.77,40.818,12.992z"/>
	<path style="fill:#35495E;" d="M13.725,50.333c0,0-5.896-27.205,13.603-27.206C54.534,23.125,72.672,55.32,72.672,55.32
		s-23.579-22.219-43.53-22.219C14.142,33.102,13.725,50.333,13.725,50.333z"/>
	<path style="fill:#35495E;" d="M31.295,5.669c-16.324,0-19.249,31.347-18.304,33.2c5.457-2.704,26.417-11.258,22.725-13.702
		c-2.174-1.439,6.694,0.126,7.567,0.501c1.6-2.231,1.616-3.441,1.616-6.396C44.899,11.759,38.808,5.669,31.295,5.669z
		 M38.777,17.231c-0.839,0-1.519-0.68-1.519-1.519c0-0.839,0.68-1.519,1.519-1.519c0.839,0,1.519,0.68,1.519,1.519
		C40.296,16.551,39.616,17.231,38.777,17.231z"/>
	<path style="fill:#35495E;" d="M24.908,70.974l-7.045,15.762h2.993l5.948-13.313C26.177,72.642,25.54,71.821,24.908,70.974z"/>
	<polygon style="fill:#35495E;" points="56.608,19.712 44.125,21.058 44.125,23.126 	"/>
</g>
</svg>
